<svg xmlns="http://www.w3.org/2000/svg" viewBox="0 0 512 512">
  <rect width="512" height="512" fill="#131815"/>
  <g transform="translate(256,256) scale(0.8) translate(-256,-256)">
    <path fill="#52c4a0" fill-rule="evenodd" d="
      M256,72 C256,72 176,104 128,120 L128,232 C128,326 180,392 256,440 C332,392 384,326 384,232 L384,120 C336,104 256,72 256,72 Z
      M232,168 L280,168 L280,230 L312,230 L312,278 L280,278 L280,340 L232,340 L232,278 L200,278 L200,230 L232,230 Z
    "/>
  </g>
</svg>
